<svg width="40" height="40" viewBox="0 0 40 40" fill="none" xmlns="http://www.w3.org/2000/svg">
  <rect width="40" height="40" rx="20" fill="#F06522"/>
  <path d="M20 20C18.9 20 17.9583 19.6083 17.175 18.825C16.3917 18.0417 16 17.1 16 16C16 14.9 16.3917 13.9583 17.175 13.175C17.9583 12.3917 18.9 12 20 12C21.1 12 22.0417 12.3917 22.825 13.175C23.6083 13.9583 24 14.9 24 16C24 17.1 23.6083 18.0417 22.825 18.825C22.0417 19.6083 21.1 20 20 20ZM12 28V25.2C12 24.6333 12.146 24.1123 12.438 23.637C12.7293 23.1623 13.1167 22.8 13.6 22.55C14.6333 22.0333 15.6833 21.6457 16.75 21.387C17.8167 21.129 18.9 21 20 21C21.1 21 22.1833 21.129 23.25 21.387C24.3167 21.6457 25.3667 22.0333 26.4 22.55C26.8833 22.8 27.2707 23.1623 27.562 23.637C27.854 24.1123 28 24.6333 28 25.2V28H12Z" fill="white"/>
</svg>
